<svg width="566" height="550" viewBox="0 0 566 550" fill="none" xmlns="http://www.w3.org/2000/svg">
<path d="M285.394 0.0291797C217.845 -0.943336 152.202 22.422 100.46 65.8554C48.7173 109.289 14.3307 169.89 3.58361 236.585C-7.16347 303.281 6.44659 371.616 41.9267 429.104C77.4069 486.593 132.388 529.395 196.823 549.69C209.848 552.295 220.268 537.967 220.268 526.245V488.472C142.117 505.404 117.369 450.699 117.369 450.699C112.288 434.21 102.29 419.667 88.7142 409.018C62.6639 390.783 90.0167 392.086 90.0167 392.086C98.7154 392.779 107.132 395.496 114.594 400.019C122.057 404.542 128.36 410.746 133 418.136C155.142 455.909 204.638 452.001 220.268 445.489C218.9 432.538 221.155 419.461 226.781 407.716C138.21 392.086 90.0167 339.985 90.0167 269.649C89.0849 232.966 102.658 197.396 127.79 170.658C120.789 157.725 117.452 143.125 118.141 128.434C118.83 113.743 123.517 99.5196 131.697 87.2976C147.428 87.607 162.932 91.1155 177.263 97.6094C191.594 104.103 204.454 113.447 215.058 125.07C237.676 117.353 261.51 113.822 285.394 114.65C309.176 113.913 332.922 116.991 355.729 123.768C366.492 112.44 379.411 103.378 393.727 97.1149C408.043 90.8518 423.466 87.514 439.09 87.2976C447.092 99.5564 451.777 113.68 452.691 128.291C453.604 142.901 450.713 157.499 444.3 170.658C468.959 197.602 482.055 233.148 480.771 269.649C480.771 339.985 432.578 392.086 344.007 407.716C349.633 419.461 351.887 432.538 350.519 445.489V526.245C350.514 529.436 351.161 532.595 352.42 535.528C353.679 538.461 355.523 541.106 357.84 543.301C360.157 545.496 362.898 547.195 365.895 548.293C368.891 549.392 372.081 549.867 375.267 549.69C438.167 527.866 491.344 484.538 525.425 427.343C559.506 370.148 572.302 302.758 561.559 237.052C550.815 171.346 517.222 111.541 466.699 68.1796C416.177 24.818 351.969 0.683192 285.394 0.0291797Z" fill="#CCCCCC"/>
</svg>
