<svg width="512" height="512" viewBox="0 0 512 512" fill="none" xmlns="http://www.w3.org/2000/svg">
<path d="M304 220.002C352.5 221.71 350 274.002 350 274.002V347H309V274.002C309 274.002 308 251.5 287 252.002C270 252.409 265 271 265 271V346C265 346.552 264.552 347 264 347H225C224.448 347 224 346.552 224 346V224C224 223.448 224.448 223 225 223H264C264.552 223 265 223.448 265 224V241C265 241 275.5 218.999 304 220.002Z" fill="#CCCCCC"/>
<path d="M160 223C160 222.448 160.448 222 161 222H200C200.552 222 201 222.448 201 223V346C201 346.552 200.552 347 200 347H161C160.448 347 160 346.552 160 346V223Z" fill="#CCCCCC"/>
<path d="M204 184.5C204 196.374 196 206 181 206C166 206 158 196.374 158 184.5C158 172.626 166 163 181 163C196 163 204 172.626 204 184.5Z" fill="#CCCCCC"/>
<path fill-rule="evenodd" clip-rule="evenodd" d="M256 512C397.385 512 512 397.385 512 256C512 114.615 397.385 0 256 0C114.615 0 0 114.615 0 256C0 397.385 114.615 512 256 512ZM118 137C118 125.402 127.402 116 139 116H371C382.598 116 392 125.402 392 137V371C392 382.598 382.598 392 371 392H139C127.402 392 118 382.598 118 371V137Z" fill="#CCCCCC"/>
</svg>
