<svg width="548" height="550" viewBox="0 0 548 550" fill="none" xmlns="http://www.w3.org/2000/svg">
<path fill-rule="evenodd" clip-rule="evenodd" d="M427 154C427 191.003 397.003 221 360 221C322.997 221 293 191.003 293 154C293 116.997 322.997 87 360 87C397.003 87 427 116.997 427 154ZM403 154C403 177.748 383.748 197 360 197C336.252 197 317 177.748 317 154C317 130.252 336.252 111 360 111C383.748 111 403 130.252 403 154Z" fill="#FFFFFF"/>
<path d="M224.524 65.2129C227.575 59.0203 235.069 56.4734 241.262 59.5244L286.114 81.6223C292.306 84.6733 294.853 92.167 291.802 98.3596C288.751 104.552 281.258 107.099 275.065 104.048L230.213 81.9504C224.02 78.8994 221.473 71.4058 224.524 65.2129Z" fill="#FFFFFF"/>
<path d="M214.43 120.816C207.622 119.67 201.175 124.26 200.029 131.068C198.884 137.876 203.474 144.324 210.282 145.469L259.589 153.766C266.396 154.912 272.844 150.322 273.99 143.514C275.135 136.706 270.545 130.259 263.737 129.113L214.43 120.816Z" fill="#FFFFFF"/>
<path d="M210.991 219.407C208.235 213.077 211.131 205.712 217.46 202.955L263.302 182.991C269.631 180.235 276.997 183.131 279.753 189.461C282.51 195.79 279.613 203.156 273.284 205.912L227.442 225.876C221.113 228.633 213.748 225.736 210.991 219.407Z" fill="#FFFFFF"/>
<path d="M264.112 269.947C260.1 275.565 261.402 283.372 267.02 287.384C272.638 291.396 280.445 290.094 284.457 284.476L313.515 243.787C317.527 238.169 316.225 230.362 310.607 226.35C304.989 222.338 297.182 223.64 293.17 229.258L264.112 269.947Z" fill="#FFFFFF"/>
<path d="M352.48 316.591C345.587 316.197 340.319 310.291 340.713 303.398L343.563 253.479C343.956 246.587 349.863 241.319 356.755 241.712C363.647 242.106 368.916 248.012 368.522 254.905L365.672 304.823C365.278 311.716 359.372 316.984 352.48 316.591Z" fill="#FFFFFF"/>
<path d="M428.485 285.755C431.852 291.781 439.468 293.937 445.494 290.57C451.521 287.203 453.677 279.587 450.309 273.561L425.921 229.912C422.553 223.885 414.938 221.729 408.911 225.097C402.885 228.464 400.729 236.08 404.096 242.106L428.485 285.755Z" fill="#FFFFFF"/>
<path fill-rule="evenodd" clip-rule="evenodd" d="M547.907 30.0538C548.504 13.6352 535.356 0 518.926 0H29.0737C12.6442 0 -0.504173 13.6352 0.0928679 30.0539L17.9838 522.054C18.5509 537.65 31.3585 550 46.9646 550H501.035C516.642 550 529.449 537.65 530.016 522.054L547.907 30.0538ZM499 50H49L61.6528 397.955C72.8176 398.247 84.7732 397.568 94.7605 394.905C99.1094 393.745 104.124 392.037 109.785 390.109C139.899 379.854 188.32 363.365 252.277 389.939C255.98 391.477 260.107 394.003 263.071 395.818L263.333 395.978C264.3 396.57 265.154 397.09 265.907 397.542C283.928 389.606 311.386 380.202 340.909 376.095C373.525 371.559 410.918 373.188 440.471 393.119C461.835 407.527 476.466 413.062 485.741 414.63L499 50ZM65.3635 500L62.5627 422.98C75.2656 423.214 89.0376 422.304 101.202 419.06C106.862 417.551 112.838 415.553 119.196 413.427L119.203 413.426C149.375 403.338 188.161 390.371 242.685 413.026C244.319 413.704 246.77 415.152 250.286 417.303L250.93 417.698C253.043 418.994 255.789 420.679 258.409 421.985C272.962 435.504 283.871 442.293 296.601 444.495C302.779 445.563 308.814 445.443 314.687 445.184C316.06 445.124 317.438 445.055 318.84 444.985L319.021 444.976H319.034C320.165 444.919 321.312 444.861 322.486 444.807C329.382 444.485 334.981 438.886 334.981 431.983C334.981 425.079 329.382 419.478 322.485 419.78L321.575 419.821C321.195 419.838 320.82 419.856 320.449 419.874C319.403 419.923 318.397 419.974 317.432 420.023L317.332 420.027L315.59 420.115L314.907 420.148L314.167 420.182L313.588 420.208C307.899 420.459 304.184 420.435 300.862 419.861C297.671 419.308 294.196 418.141 289.381 415.005C304.663 409.323 324.046 403.682 344.353 400.857C374.504 396.664 404.445 398.976 426.492 413.845C450.883 430.295 469.975 437.999 484.827 439.748L482.636 500H65.3635Z" fill="#FFFFFF"/>
</svg>
